
<svg width="100%" height="100%" viewBox="0 0 600 600" xmlns="http://www.w3.org/2000/svg" preserveAspectRatio="xMidYMid meet">
  <g fill="none" stroke="#BCC2CC" stroke-width="0.8" stroke-opacity="0.6">
    <circle cx="300" cy="300" r="250"/>
    <ellipse cx="300" cy="300" rx="250" ry="100"/>
    <ellipse cx="300" cy="300" rx="250" ry="60"/>
    <ellipse cx="300" cy="300" rx="250" ry="30"/>

    <path d="M50,300 A250,250 0 0,1 550,300" />
    <path d="M100,150 A250,250 0 0,1 500,450" />
    <path d="M150,100 A250,250 0 0,1 450,500" />
    <path d="M200,75 A250,250 0 0,1 400,525" />
    <path d="M250,60 A250,250 0 0,1 350,540" />
    <path d="M300,55 A250,250 0 0,1 300,545" />
    <path d="M350,60 A250,250 0 0,1 250,540" />
    <path d="M400,75 A250,250 0 0,1 200,525" />
    <path d="M450,100 A250,250 0 0,1 150,500" />
    <path d="M500,150 A250,250 0 0,1 100,450" />
  </g>
</svg>
